<svg xmlns="http://www.w3.org/2000/svg" viewBox="0 0 32 32" id="wave">
  <g>
    <path d="M29 13a2.82 2.82 0 0 1-2-.79 4.87 4.87 0 0 0-6.42 0 2.9 2.9 0 0 1-4 0 4.87 4.87 0 0 0-6.42 0 2.89 2.89 0 0 1-4 0A4.75 4.75 0 0 0 3 11a1 1 0 0 0 0 2 2.82 2.82 0 0 1 2 .79A4.75 4.75 0 0 0 8.2 15a4.75 4.75 0 0 0 3.21-1.21 2.89 2.89 0 0 1 4 0 4.87 4.87 0 0 0 6.42 0 2.9 2.9 0 0 1 4 0A4.76 4.76 0 0 0 29 15a1 1 0 0 0 0-2zM29 7a2.82 2.82 0 0 1-2-.79 4.87 4.87 0 0 0-6.42 0 2.9 2.9 0 0 1-4 0 4.87 4.87 0 0 0-6.42 0 2.89 2.89 0 0 1-4 0A4.75 4.75 0 0 0 3 5 1 1 0 0 0 3 7a2.82 2.82 0 0 1 2 .79A4.75 4.75 0 0 0 8.2 9a4.75 4.75 0 0 0 3.21-1.21 2.89 2.89 0 0 1 4 0 4.87 4.87 0 0 0 6.42 0 2.9 2.9 0 0 1 4 0A4.76 4.76 0 0 0 29 9a1 1 0 0 0 0-2zM29 19a2.82 2.82 0 0 1-2-.79 4.87 4.87 0 0 0-6.42 0 2.9 2.9 0 0 1-4 0 4.87 4.87 0 0 0-6.42 0 2.89 2.89 0 0 1-4 0A4.75 4.75 0 0 0 3 17a1 1 0 0 0 0 2 2.82 2.82 0 0 1 2 .79A4.75 4.75 0 0 0 8.2 21a4.75 4.75 0 0 0 3.21-1.21 2.89 2.89 0 0 1 4 0 4.87 4.87 0 0 0 6.42 0 2.9 2.9 0 0 1 4 0A4.76 4.76 0 0 0 29 21a1 1 0 0 0 0-2zM29 25a2.82 2.82 0 0 1-2-.79 4.87 4.87 0 0 0-6.42 0 2.9 2.9 0 0 1-4 0 4.87 4.87 0 0 0-6.42 0 2.89 2.89 0 0 1-4 0A4.75 4.75 0 0 0 3 23a1 1 0 0 0 0 2 2.82 2.82 0 0 1 2 .79A4.75 4.75 0 0 0 8.2 27a4.75 4.75 0 0 0 3.21-1.21 2.89 2.89 0 0 1 4 0 4.87 4.87 0 0 0 6.42 0 2.9 2.9 0 0 1 4 0A4.76 4.76 0 0 0 29 27a1 1 0 0 0 0-2z" fill="#FFFFFF"></path>
  </g>
</svg>
